<svg xmlns="http://www.w3.org/2000/svg" viewBox="0 0 377.947 377.947"><path d="M196.544 254.368c-.107-.673-.175-1.444-.552-1.963-.659-.906-1.496-1.684-2.304-2.53-.07-.158-.219-.275-.317-.411-.238-.323-.436-.713-.638-1.06-.248-.43-.448-.956-.76-1.341l-.046-.047c-.088-.424-.194-.783-.192-1.139.001-1.225-.148-2.501.133-3.668.199-.824.445-1.445.77-1.918.391-.432.829-.88 1.37-1.464.593 1.957 1.137 3.656 1.617 5.374.23.82.22 1.723.542 2.496.186.45.764.848 1.254 1.032.572.216.784-.186.639-.761-.427-1.703-.864-3.403-1.256-5.113-.263-1.152-.347-2.355-.712-3.47a7.423 7.423 0 0 0-1.103-2.088l.07-.045-.27-.235c-.16-.145-.242-.445-.246-.704l.108-.254c.157-.064.46-.104.637-.198.52-.272 1.215-.458 1.49-.898.497-.794.466-1.802-.26-2.456-.407-.367-1.173-.566-1.731-.492-1.24.161-1.822.832-1.978 2.025-.093.713-.278 1.003-1.122.884a7.45 7.45 0 0 0-2.791.14c-1.137.284-2.201.855-3.316 1.245-1.656.58-3.328 1.115-4.996 1.66-.564.186-.792.579-.304.948.417.316 1.061.594 1.543.512.825-.14 1.584-.629 2.4-.872 1.709-.509 3.437-.954 5.41-1.494-.273 1.021-.442 1.761-.672 2.481-.374 1.18-.784 2.35-1.189 3.519-.693 2.001-1.035 6.814-1.028 6.919.032.422.327 1.184.332 1.202-.04.01 1.072 1.801 1.724 2.539.896 1.01 2.083 1.769 2.523 3.161.066.21.608.494.69.432.267-.201.63-.6.575-.834-.121-.524-.415-1.037-.739-1.48-.784-1.073-1.632-2.095-2.437-3.151l-.087-.12a2.587 2.587 0 0 1-.384-2.194c.224-.81.503-1.79.55-2.114.013-.015.286-.45.325-.095.027.261.787 1.836.84 2.092.083.385 1.29 2.288 1.615 2.567 1.193 1.026 2.624 1.834 3.04 3.545.046.188.47.417.689.39.212-.027.57-.39.544-.554M254.673 139.424a.87.87 0 0 0-.71-.115l-1.139.267a.79.79 0 0 0-.333.196.487.487 0 0 0-.138.34c0 .12.04.292.234.428.202.144.481.183.832.09l.044-.013v4.022c0 .117.041.285.238.424a.814.814 0 0 0 .48.144c.187 0 .35-.05.484-.144a.505.505 0 0 0 .239-.424v-4.788a.516.516 0 0 0-.23-.427M223.257 224.823a.872.872 0 0 0-.712-.116l-1.137.266a.792.792 0 0 0-.333.198.486.486 0 0 0-.138.338c0 .122.04.292.234.428.202.144.481.183.832.091l.044-.012v4.02c0 .117.041.287.238.424a.805.805 0 0 0 .48.144c.187 0 .35-.048.484-.144a.504.504 0 0 0 .239-.424v-4.788a.513.513 0 0 0-.23-.425M154.87 240.844a.869.869 0 0 0-.71-.116l-1.137.268a.76.76 0 0 0-.334.196.488.488 0 0 0-.138.34c0 .12.041.292.233.427.204.145.483.184.832.09l.045-.012v4.022c0 .117.042.285.238.424a.817.817 0 0 0 .48.142c.186 0 .35-.048.485-.142a.508.508 0 0 0 .237-.424v-4.788a.513.513 0 0 0-.23-.427"/><path fill="#777374" d="M204.517 124.952a.56.56 0 0 1-.33-.099.346.346 0 0 1-.164-.292v-2.769l-.031.008c-.09.023-.17.035-.245.035a.546.546 0 0 1-.328-.098.348.348 0 0 1-.162-.294l.095-.234.23-.136.785-.184a.62.62 0 0 1 .157-.02c.121 0 .243.035.332.1.13.096.159.214.159.294v3.298a.346.346 0 0 1-.164.292.566.566 0 0 1-.334.099M239.217 141.32a.554.554 0 0 1-.33-.099.349.349 0 0 1-.164-.292v-2.769l-.031.008a.927.927 0 0 1-.244.035.55.55 0 0 1-.33-.098.35.35 0 0 1-.16-.294l.095-.234.23-.136.784-.184a.62.62 0 0 1 .49.08c.131.096.159.214.159.294v3.298c0 .082-.03.198-.164.292a.56.56 0 0 1-.335.099M161.321 129.963a.558.558 0 0 1-.33-.1.347.347 0 0 1-.163-.292v-2.77l-.032.008a.927.927 0 0 1-.244.035.56.56 0 0 1-.33-.096.352.352 0 0 1-.16-.295l.095-.234.231-.135.783-.185a.62.62 0 0 1 .49.08c.131.096.159.213.159.294v3.298a.346.346 0 0 1-.164.292.562.562 0 0 1-.335.1M136.79 132.968a.552.552 0 0 1-.33-.1.346.346 0 0 1-.164-.292v-2.77l-.03.009a.944.944 0 0 1-.246.034.555.555 0 0 1-.328-.096.35.35 0 0 1-.161-.294l.094-.235.231-.135.784-.185a.618.618 0 0 1 .49.08c.13.096.158.212.158.293v3.299a.346.346 0 0 1-.164.292.557.557 0 0 1-.333.1M180.616 112.955a.563.563 0 0 1-.33-.099.349.349 0 0 1-.163-.292v-2.77l-.032.007a.932.932 0 0 1-.244.036.56.56 0 0 1-.33-.097.35.35 0 0 1-.16-.295l.095-.234.23-.135.783-.184a.567.567 0 0 1 .158-.021c.122 0 .244.036.333.101.13.095.159.212.159.293v3.299c0 .08-.028.196-.164.292a.57.57 0 0 1-.335.099"/><path d="M154.87 115.543a.868.868 0 0 0-.71-.115l-1.137.267a.76.76 0 0 0-.334.196.488.488 0 0 0-.138.34c0 .12.041.292.233.428.204.144.483.182.832.089l.045-.012v4.021c0 .118.042.286.238.424a.817.817 0 0 0 .48.143c.186 0 .35-.048.485-.143a.507.507 0 0 0 .237-.424v-4.789a.516.516 0 0 0-.23-.425M120.55 149.708a.87.87 0 0 0-.71-.116l-1.138.267a.784.784 0 0 0-.334.197.49.49 0 0 0-.137.34c0 .12.04.292.233.427.203.144.482.184.832.09l.045-.012v4.02c0 .118.04.287.237.426a.82.82 0 0 0 .48.142c.187 0 .35-.048.485-.142a.507.507 0 0 0 .238-.426v-4.788a.513.513 0 0 0-.23-.425M233.012 122.91c0 .273-.027.529-.079.76-.049.225-.124.418-.222.58-.095.153-.21.269-.354.355a1.037 1.037 0 0 1-.985.003 1.069 1.069 0 0 1-.355-.353 1.767 1.767 0 0 1-.226-.575 3.552 3.552 0 0 1-.079-.77c0-.273.027-.529.079-.762.049-.224.125-.417.225-.577.095-.152.212-.268.356-.355a.92.92 0 0 1 .49-.125c.191 0 .351.041.491.125.143.085.258.203.352.356.099.163.175.359.226.583.054.232.081.485.081.756zm1.281-1.214a2.635 2.635 0 0 0-.505-.943 2.26 2.26 0 0 0-.827-.604c-.642-.276-1.556-.274-2.197-.002a2.19 2.19 0 0 0-.825.598c-.222.259-.391.575-.506.94-.113.358-.17.77-.17 1.226 0 .454.057.868.17 1.226.115.367.284.683.506.94.221.26.5.46.825.598.321.136.69.204 1.099.204.408 0 .777-.07 1.1-.208a2.25 2.25 0 0 0 .825-.604c.223-.259.392-.576.505-.942.112-.36.17-.769.17-1.214 0-.447-.058-.855-.17-1.215M183.985 121.09c0 .273-.026.529-.078.762-.05.221-.124.416-.223.577-.093.154-.21.27-.353.356a1.034 1.034 0 0 1-.984.003 1.048 1.048 0 0 1-.356-.353 1.78 1.78 0 0 1-.227-.575 3.552 3.552 0 0 1-.079-.77c0-.271.027-.529.079-.762.05-.224.125-.417.225-.576.095-.153.212-.27.356-.356a.92.92 0 0 1 .491-.125c.19 0 .35.041.49.125.143.087.26.203.353.356.1.164.176.359.226.583.054.232.08.485.08.756zm1.282-1.214a2.635 2.635 0 0 0-.506-.943 2.27 2.27 0 0 0-.825-.604c-.644-.276-1.557-.274-2.199-.002a2.19 2.19 0 0 0-.825.598 2.68 2.68 0 0 0-.505.939c-.114.359-.171.77-.171 1.227 0 .454.057.868.17 1.226.115.367.286.683.506.94.223.259.5.46.825.598.322.136.691.204 1.099.204.408 0 .777-.07 1.1-.208a2.24 2.24 0 0 0 .825-.604c.223-.26.392-.576.506-.942.112-.36.169-.768.169-1.214 0-.447-.057-.855-.17-1.215M138.156 224.676c0 .273-.027.53-.079.761a1.87 1.87 0 0 1-.222.578c-.095.153-.21.269-.354.356a1.034 1.034 0 0 1-.984.002 1.048 1.048 0 0 1-.356-.353 1.755 1.755 0 0 1-.226-.575 3.552 3.552 0 0 1-.079-.769c0-.272.027-.53.079-.763.049-.224.125-.417.225-.576.095-.152.212-.269.356-.356a.92.92 0 0 1 .49-.125c.191 0 .351.041.491.125.143.087.258.203.352.358.1.162.176.358.227.581.053.232.08.487.08.756zm1.281-1.213a2.613 2.613 0 0 0-.505-.943 2.24 2.24 0 0 0-.825-.604c-.644-.276-1.558-.275-2.199-.004a2.18 2.18 0 0 0-.825.6c-.222.257-.391.573-.506.939-.113.357-.17.77-.17 1.225 0 .455.057.868.17 1.227.115.366.284.684.506.94.222.26.5.46.825.597.321.136.69.205 1.099.205.408 0 .777-.07 1.1-.209.324-.14.602-.343.825-.603.223-.26.392-.577.505-.942.112-.36.17-.768.17-1.215a4.08 4.08 0 0 0-.17-1.213M231.863 258.153c0 .272-.027.529-.079.76-.05.223-.124.418-.223.577-.094.154-.209.271-.353.358a1.042 1.042 0 0 1-.985.003 1.067 1.067 0 0 1-.355-.354 1.774 1.774 0 0 1-.227-.576 3.536 3.536 0 0 1-.078-.768c0-.273.026-.529.078-.764.05-.223.126-.416.226-.576.094-.152.212-.268.356-.355a.93.93 0 0 1 .49-.125c.191 0 .351.042.49.126.144.085.258.202.353.356.099.162.175.358.225.582.055.23.082.486.082.756zm1.281-1.214a2.631 2.631 0 0 0-.505-.943 2.245 2.245 0 0 0-.827-.604c-.643-.276-1.556-.275-2.197-.004-.326.139-.604.34-.826.6-.221.257-.39.573-.505.939-.113.358-.17.77-.17 1.226 0 .455.057.867.17 1.227.115.367.284.683.505.94.222.258.5.46.826.597.321.135.689.204 1.098.204.408 0 .778-.07 1.1-.208a2.25 2.25 0 0 0 .826-.604 2.63 2.63 0 0 0 .505-.941 4.1 4.1 0 0 0 .17-1.215c0-.446-.058-.856-.17-1.214"/><path fill="#b1adad" d="M250.948 241.308l-.297-.09a.31.31 0 0 1-.148-.262v-2.493l-.028.008a.907.907 0 0 1-.22.03.505.505 0 0 1-.296-.086l-.144-.266.085-.21.207-.123.705-.165a.555.555 0 0 1 .141-.019c.111 0 .22.032.3.09l.143.265v2.969a.312.312 0 0 1-.148.263l-.3.089M222.67 134.024c-.253 0-.48-.036-.68-.107a1.383 1.383 0 0 1-.513-.312 1.337 1.337 0 0 1-.313-.49 1.84 1.84 0 0 1-.105-.64c0-.238.036-.454.106-.64.071-.191.176-.355.312-.491.139-.135.311-.24.514-.312.197-.07.437-.107.678-.107.242 0 .484.036.684.11.202.072.374.178.512.314s.243.302.314.492c.069.187.105.4.105.634 0 .233-.036.446-.105.633a1.33 1.33 0 0 1-.314.492c-.138.136-.31.243-.512.316-.2.072-.429.108-.682.108m0-2.499l-.304.064-.222.187-.138.301c-.032.122-.05.255-.05.398 0 .145.018.28.05.401l.14.3.221.185a.69.69 0 0 0 .303.064c.11 0 .221-.022.306-.065l.22-.187.138-.301c.033-.121.049-.255.049-.397 0-.142-.017-.274-.05-.395l-.14-.304-.22-.185-.303-.066M145.81 137.313c-.254 0-.482-.042-.68-.126a1.382 1.382 0 0 1-.514-.371 1.674 1.674 0 0 1-.313-.583 2.569 2.569 0 0 1-.106-.761c0-.283.036-.537.107-.76a1.65 1.65 0 0 1 .312-.583 1.37 1.37 0 0 1 .513-.372c.198-.082.439-.125.679-.125.241 0 .484.043.684.128.201.087.373.213.512.375.137.161.243.357.313.584.07.222.106.477.106.753 0 .277-.036.53-.106.753-.07.227-.176.423-.313.584-.139.162-.31.288-.512.375-.2.085-.43.13-.683.13m0-2.97l-.304.077-.22.22c-.062.099-.109.219-.14.358-.032.145-.049.304-.049.473 0 .172.017.332.05.477.03.139.077.259.14.356l.22.22a.6.6 0 0 0 .303.076.6.6 0 0 0 .307-.078l.22-.22c.061-.1.108-.22.137-.359.034-.144.05-.303.05-.472 0-.167-.018-.325-.051-.468a1.195 1.195 0 0 0-.14-.361l-.219-.222-.304-.077M195.553 111.625c-.253 0-.481-.042-.681-.126a1.388 1.388 0 0 1-.512-.371 1.668 1.668 0 0 1-.313-.584 2.56 2.56 0 0 1-.106-.76c0-.283.036-.537.106-.76.072-.227.177-.423.313-.583.139-.161.31-.286.512-.37.199-.086.439-.127.68-.127.241 0 .484.043.684.128.201.087.373.213.512.375.137.161.243.357.313.584.07.222.106.476.106.753s-.036.53-.106.753c-.07.227-.176.423-.313.584-.139.162-.31.287-.512.375-.2.085-.43.13-.683.13m0-2.97l-.304.077-.221.22a1.142 1.142 0 0 0-.139.358c-.032.145-.049.304-.049.473 0 .172.017.332.05.477.03.139.077.259.14.356l.22.22c.086.051.194.076.303.076a.6.6 0 0 0 .307-.078l.22-.222c.06-.098.107-.218.137-.357.034-.144.05-.303.05-.472 0-.168-.018-.325-.051-.468-.03-.14-.079-.26-.14-.361l-.219-.222-.304-.077M131.621 145.001a1.74 1.74 0 0 1-.68-.126 1.363 1.363 0 0 1-.513-.371 1.636 1.636 0 0 1-.313-.583 2.553 2.553 0 0 1-.106-.76c0-.282.036-.538.106-.76a1.65 1.65 0 0 1 .313-.582c.138-.162.31-.287.513-.372.198-.084.438-.127.679-.127.241 0 .483.043.683.13.202.086.374.211.513.374.137.16.243.357.313.584.07.223.105.476.105.753 0 .276-.036.53-.105.754-.07.225-.176.422-.313.584-.139.161-.311.286-.512.373-.2.087-.43.13-.683.13m0-2.97l-.304.077-.22.222a1.127 1.127 0 0 0-.14.357 2.189 2.189 0 0 0-.049.473c0 .172.017.332.049.476.03.139.077.259.14.358l.22.218c.086.051.195.076.304.076.11 0 .221-.025.307-.077l.22-.221c.06-.099.107-.22.137-.358.033-.145.05-.302.05-.472 0-.168-.017-.325-.05-.469a1.22 1.22 0 0 0-.14-.361l-.22-.22-.304-.079"/><path fill="#777374" d="M169.617 119.152a1.93 1.93 0 0 1-.756-.141 1.536 1.536 0 0 1-.569-.411 1.822 1.822 0 0 1-.348-.648 2.847 2.847 0 0 1-.117-.845c0-.314.04-.598.117-.844.079-.252.196-.47.348-.647.153-.18.344-.319.57-.413.22-.094.486-.14.754-.14s.537.046.759.142c.224.096.416.236.569.416.153.179.27.398.348.65.077.246.117.528.117.836 0 .308-.04.589-.117.837-.077.25-.195.47-.348.648a1.54 1.54 0 0 1-.568.416 1.905 1.905 0 0 1-.759.144m0-3.299a.626.626 0 0 0-.337.087l-.245.244a1.25 1.25 0 0 0-.156.397 2.504 2.504 0 0 0-.054.526c0 .19.019.369.054.53.034.154.086.287.156.395l.245.244a.674.674 0 0 0 .337.085c.123 0 .246-.029.342-.086l.244-.246c.066-.11.118-.245.153-.398.036-.16.053-.336.053-.524 0-.187-.018-.362-.054-.52a1.37 1.37 0 0 0-.156-.402l-.243-.245a.634.634 0 0 0-.339-.087M142.405 258.944c-.28 0-.534-.047-.756-.14a1.526 1.526 0 0 1-.569-.412 1.851 1.851 0 0 1-.348-.648 2.842 2.842 0 0 1-.117-.845c0-.314.04-.598.118-.844.079-.252.196-.47.347-.647.153-.18.345-.319.57-.413.22-.094.487-.14.754-.14.268 0 .537.046.76.142.223.097.415.236.57.416.151.179.269.398.347.65.078.246.116.529.116.836 0 .308-.038.589-.116.837-.078.252-.196.47-.348.648-.154.18-.345.32-.569.416a1.899 1.899 0 0 1-.759.144m0-3.299a.627.627 0 0 0-.337.087l-.245.244c-.07.11-.122.244-.155.397a2.418 2.418 0 0 0-.055.526c0 .19.019.369.055.53.033.154.087.287.156.396l.245.243a.66.66 0 0 0 .336.085c.123 0 .246-.029.342-.087l.244-.245c.068-.11.12-.245.153-.398.036-.16.053-.336.053-.524 0-.186-.017-.362-.054-.52a1.332 1.332 0 0 0-.156-.402l-.243-.245a.628.628 0 0 0-.339-.087M116.18 219.75a.563.563 0 0 1-.332-.098.347.347 0 0 1-.163-.292v-2.77l-.031.009a.99.99 0 0 1-.245.034.559.559 0 0 1-.329-.097.35.35 0 0 1-.16-.295l.095-.233.23-.136.783-.184a.624.624 0 0 1 .157-.02.57.57 0 0 1 .333.1.354.354 0 0 1 .16.293v3.299c0 .08-.03.197-.165.292a.568.568 0 0 1-.334.099M258.503 154.57c-.282 0-.536-.047-.758-.14a1.502 1.502 0 0 1-.568-.411 1.833 1.833 0 0 1-.349-.648 2.84 2.84 0 0 1-.117-.846c0-.313.04-.597.118-.844.079-.252.196-.469.348-.646.152-.18.344-.319.568-.414a1.98 1.98 0 0 1 .755-.14c.27 0 .537.047.76.143.224.096.415.236.57.416.153.179.27.397.347.65.078.246.116.527.116.835 0 .308-.038.59-.116.838-.077.25-.194.469-.348.648-.154.18-.345.32-.569.416a1.894 1.894 0 0 1-.757.144m0-3.299a.642.642 0 0 0-.339.085l-.245.246c-.068.109-.122.242-.155.397a2.418 2.418 0 0 0-.053.525c0 .191.017.37.053.531.033.153.087.287.156.396l.245.243a.66.66 0 0 0 .338.085c.122 0 .245-.03.34-.087l.244-.245c.068-.11.12-.245.153-.399.036-.16.055-.336.055-.524 0-.185-.019-.361-.056-.52a1.3 1.3 0 0 0-.156-.401l-.243-.245a.63.63 0 0 0-.337-.087M248.023 224.827a1.93 1.93 0 0 1-.756-.142 1.521 1.521 0 0 1-.57-.41 1.822 1.822 0 0 1-.348-.648 2.847 2.847 0 0 1-.117-.846c0-.313.04-.597.117-.844.079-.252.196-.469.348-.648.154-.178.344-.317.57-.412.22-.093.486-.14.754-.14s.538.047.759.143c.224.096.416.236.57.416.153.179.27.397.347.65.078.246.118.527.118.835 0 .308-.04.59-.118.838-.077.25-.194.469-.348.648a1.54 1.54 0 0 1-.568.416 1.905 1.905 0 0 1-.758.144m0-3.299a.637.637 0 0 0-.338.085l-.245.246a1.25 1.25 0 0 0-.156.397 2.504 2.504 0 0 0-.053.525c0 .191.018.37.053.53.035.154.087.288.156.397l.245.243a.66.66 0 0 0 .338.085c.122 0 .245-.03.341-.087l.244-.245c.067-.11.119-.245.153-.399.036-.16.054-.336.054-.524 0-.185-.019-.361-.056-.52a1.333 1.333 0 0 0-.155-.401l-.243-.247a.646.646 0 0 0-.338-.085M216.89 117.897a1.93 1.93 0 0 1-.755-.14 1.524 1.524 0 0 1-.57-.412 1.815 1.815 0 0 1-.348-.646 2.804 2.804 0 0 1-.117-.846c0-.313.039-.598.117-.845.079-.25.196-.468.348-.647.154-.178.344-.318.57-.413.22-.092.486-.14.754-.14s.538.048.759.143c.224.097.416.236.57.416.153.178.27.397.347.649.078.248.118.53.118.837 0 .307-.04.588-.118.836-.077.252-.194.471-.348.65-.153.18-.345.32-.569.416a1.918 1.918 0 0 1-.757.142m0-3.298a.635.635 0 0 0-.338.086l-.245.246a1.25 1.25 0 0 0-.156.397c-.035.16-.053.337-.053.525 0 .191.018.37.053.53.035.154.087.288.156.396l.245.244a.674.674 0 0 0 .338.084c.122 0 .245-.03.341-.087l.244-.245c.067-.111.119-.244.152-.398.036-.16.055-.337.055-.524 0-.186-.019-.361-.056-.521a1.333 1.333 0 0 0-.155-.401l-.244-.246a.638.638 0 0 0-.337-.086M266.904 219.75a.56.56 0 0 1-.33-.098.346.346 0 0 1-.165-.292v-2.77l-.03.009a.996.996 0 0 1-.246.034.558.558 0 0 1-.328-.097.35.35 0 0 1-.161-.295l.096-.233.23-.136.783-.184a.62.62 0 0 1 .158-.02c.121 0 .244.035.332.1a.351.351 0 0 1 .158.293v3.299c0 .08-.028.197-.164.292a.566.566 0 0 1-.333.099M128.846 241.62a.563.563 0 0 1-.33-.099.347.347 0 0 1-.164-.292v-2.769l-.032.008a.99.99 0 0 1-.245.035.55.55 0 0 1-.328-.098.35.35 0 0 1-.16-.294l.094-.234.23-.136.784-.184a.624.624 0 0 1 .157-.02.57.57 0 0 1 .333.1.354.354 0 0 1 .159.294v3.298a.347.347 0 0 1-.164.292.568.568 0 0 1-.334.099"/><path fill="#b1adad" d="M236.345 241.42c-.252 0-.481-.043-.68-.127a1.366 1.366 0 0 1-.512-.37 1.626 1.626 0 0 1-.313-.584 2.516 2.516 0 0 1-.107-.76c0-.283.036-.539.107-.76.07-.227.176-.423.313-.583.138-.161.31-.287.512-.372.198-.084.439-.125.679-.125.241 0 .484.042.684.128.201.086.373.213.512.374.137.162.244.358.313.584.07.223.106.476.106.754 0 .276-.036.53-.106.753-.069.227-.176.423-.313.584-.139.161-.31.288-.512.375-.2.085-.43.129-.683.129m0-2.97l-.304.078-.22.22c-.062.099-.109.219-.14.357a2.206 2.206 0 0 0-.048.474c0 .172.016.332.048.477.031.139.078.259.14.356l.222.219a.591.591 0 0 0 .302.077c.111 0 .222-.027.308-.079l.219-.221c.061-.099.108-.22.139-.357.032-.144.048-.303.048-.472 0-.168-.018-.326-.05-.47a1.208 1.208 0 0 0-.14-.36l-.22-.221-.304-.077M158.437 226.935c-.253 0-.482-.043-.681-.127a1.373 1.373 0 0 1-.512-.37 1.65 1.65 0 0 1-.313-.583 2.566 2.566 0 0 1-.106-.76c0-.283.036-.539.106-.76.072-.227.177-.423.313-.583.137-.161.31-.287.512-.372a1.78 1.78 0 0 1 .68-.127c.241 0 .483.043.683.13.201.086.374.212.513.374.137.16.243.358.313.584.07.223.104.476.104.754 0 .276-.034.529-.104.753a1.66 1.66 0 0 1-.313.584c-.139.161-.31.287-.512.373-.2.087-.43.13-.683.13m0-2.97l-.304.078-.221.221a1.11 1.11 0 0 0-.139.357c-.033.146-.049.304-.049.474 0 .172.016.332.05.476.029.138.077.258.14.357l.22.219c.085.05.194.076.303.076.111 0 .22-.026.307-.078l.22-.221c.06-.099.107-.22.137-.357a2.2 2.2 0 0 0-.001-.942 1.23 1.23 0 0 0-.14-.361l-.219-.22-.304-.079"/><path d="M281.947 198.861c-2.018.804-4.094 1.591-6.264 2.343-10.638 3.684-23.054 6.712-36.64 8.864-4.086-3.8-11.407-7.681-19.946-10.536a97.656 97.656 0 0 0-2.953-.936c-8.79-2.612-18.172-3.993-27.13-3.993-9.535 0-19.44 1.55-28.68 4.488-32.173-3.85-53.749-11.651-53.749-16.564 0-.57.558-3.608 11.535-7.676 7.013-1.34 14.466-2.482 22.157-3.387l1.478-.17c3.172-.36 6.584-.7 10.14-1.006l1.333-.116c2.699-.224 5.605-.432 8.883-.632l1.33-.083a441.66 441.66 0 0 1 25.436-.732c15.923 0 31.456.828 46.17 2.459l1.47.168c.536.063 1.063.13 1.59.196l.976.123c3.357.409 6.581.849 9.581 1.305 9.781 1.487 18.763 3.327 26.747 5.445 2.169.576 4.258 1.174 6.274 1.79 7.994 2.444 14.763 5.189 20.002 8.161-5.158 3.815-11.854 7.343-19.74 10.49zm-57.567 72.044l-13.243-51.769 1.583-.096c8.676-.603 17.225-1.545 25.405-2.8l1.464-.223c12.934-2.05 24.726-4.836 35.068-8.222-5.541 28.229-24.673 51.629-50.277 63.11zm-35.743 7.647a87.586 87.586 0 0 1-19.532-2.22l10.595-56.61 1.116-5.967.625-3.336a92.46 92.46 0 0 1 8.29-.351c5.734 0 10.012.444 13.161 1.04l.621 2.433 1.518 5.931 13.746 53.741a87.258 87.258 0 0 1-30.14 5.339zm-29.185-5.012l11.912-54.159 1.3-5.913.373-1.695a39.4 39.4 0 0 1 2.136-.48l-.424 2.27-1.108 5.92-10.353 55.318a87.148 87.148 0 0 1-3.836-1.261zm-56.866-65.915c10.55 3.492 22.63 6.352 35.906 8.442l1.483.228a310.139 310.139 0 0 0 22.969 2.589l2.35.167-11.495 52.264c-26.112-11.354-45.65-35.051-51.213-63.69zm58.777-2.592c1.009-.332 2.046-.65 3.113-.957 15.397-4.424 31.64-4.61 47.236-.528 1.065.279 2.107.572 3.125.879 6.852 2.065 12.184 4.562 15.876 6.829-4.638.593-9.432 1.09-14.328 1.485-1.128-5.454-10.91-8.673-26.654-8.673-4.512 0-26.326.435-28.012 8.716-4.84-.388-9.63-.883-14.315-1.479 3.339-2.056 8.03-4.321 13.959-6.272zm-66.051-6.368c-7.671-3.094-14.192-6.557-19.243-10.293 5.106-2.895 11.699-5.587 19.499-7.997a170.25 170.25 0 0 1 6.145-1.784c-.755 1.264-1.128 2.574-1.128 3.936 0 .934.214 1.83.58 2.7 4.241 10.068 31.575 15.805 47.874 18.364-4.17 2.054-7.624 4.297-10.011 6.526-13.933-2.19-26.629-5.302-37.46-9.097a142.35 142.35 0 0 1-6.256-2.355zm1.658-27.076a148.825 148.825 0 0 1 6.717-2.418c9.96-3.33 21.424-6.1 34.01-8.142l1.415-.225c4.399-.69 9.16-1.31 14.148-1.845l1.352-.143a312.23 312.23 0 0 1 8.943-.801l1.345-.09a343.085 343.085 0 0 1 23.977-.845c17.004 0 33.507 1.215 49.054 3.61l1.409.226c12.65 2.017 24.18 4.765 34.205 8.076 2.319.767 4.559 1.561 6.71 2.387 6.512 2.497 12.245 5.25 17.038 8.214-4.806-2.109-10.358-4.07-16.585-5.873-.21-.061-.404-.124-.615-.185a203.524 203.524 0 0 0-5.858-1.563c-10.232-2.587-21.714-4.683-34.262-6.233l-.821-.104c-.439-.058-.879-.114-1.327-.167l-1.452-.16c-2.482-.28-5.006-.53-7.548-.767-12.938-1.205-26.378-1.816-39.948-1.816-8.566 0-17.173.246-25.573.731l-1.359.084c-3.146.19-6.174.407-8.996.641l-1.361.112a386.31 386.31 0 0 0-11.17 1.122l-1.449.169a337.95 337.95 0 0 0-12.125 1.684c-3.503.55-6.902 1.143-10.104 1.764-4.806.93-9.394 1.961-13.73 3.068-1.827.467-3.62.941-5.349 1.435-.385.11-.742.226-1.122.338-6.01 1.759-11.392 3.666-16.062 5.714 4.658-2.878 10.209-5.558 16.493-7.998zm55.58-24.766c-.489 2.092-.931 4.209-1.32 6.344-2.406.269-4.755.56-7.033.868 1.971-2.239 4.783-4.756 8.354-7.212zm11.897-6.427a126.549 126.549 0 0 0-2.81 11.76c-1.36.11-2.754.233-4.201.37.668-3.42 1.47-6.773 2.396-10.013a66.044 66.044 0 0 1 4.615-2.117zm68.412 13.54c-14.088-1.896-28.855-2.856-43.982-2.856-6.977 0-14.044.217-21.05.648.968-4.792 2.192-9.416 3.653-13.795 5.66-1.634 11.383-2.461 17.027-2.461 20.096 0 37.34 10.57 44.352 18.464zm-44.222-50.73c38.286 0 70.896 24.677 82.818 58.953-9.196-2.834-19.434-5.206-30.464-7.012-5.09-10.707-27.356-25.675-52.484-25.675-6.323 0-12.692.913-18.928 2.715-.536.154-1.066.318-1.592.485a71.47 71.47 0 0 0-12.282 5.163c-9.214 4.937-16.702 11.636-19.577 17.417-10.998 1.828-21.205 4.221-30.366 7.076 11.872-34.364 44.526-59.123 82.875-59.123zm118.552 76.227c-6.994-5.633-16.792-10.69-28.682-14.925-11.422-38.85-47.375-67.303-89.87-67.303-42.566 0-78.568 28.55-89.925 67.499-11.895 4.284-21.666 9.393-28.579 15.073-.908.747-3.173 2.051-3.173 5.676 0 3.208 2.15 4.847 2.493 5.14 6.505 5.548 15.561 10.508 26.624 14.715 6.96 44.825 45.815 79.244 92.56 79.244 46.675 0 85.479-34.317 92.524-79.044 9.847-3.703 18.128-7.997 24.46-12.77.936-.703 2.855-2.278 3.672-3.342.759-.988 1.022-3.716 1.022-3.73-.011-2.434-1.231-4.707-3.126-6.233"/><path d="M132.922 110.877c-5.348 3.963-13.128 2.955-17.008-2.281-3.942-5.319-2.69-13.061 2.685-17.047 2.144-1.589 4.61-2.337 6.743-2.192l-1.092-1.477 3.23-2.392 4.87 6.572-3.591 2.663c-2.454-1.159-5.224-.703-7.23.782-3.23 2.394-3.754 6.751-1.38 9.955 2.372 3.203 6.611 3.859 9.84 1.463 2.09-1.547 3.246-3.828 2.929-6.354l4.4-3.261c2.331 6.816-1.973 11.775-4.396 13.57M141.836 83.09l-2.297.98-1.606-3.762 9.312-3.976 1.607 3.763-2.296.981 5.907 13.84 2.296-.981 1.605 3.764-9.31 3.973-1.607-3.761 2.297-.98-5.908-13.842M167.423 82.015l3.069-.563c2.047-.372 3.317-1.91 2.95-3.92-.337-1.843-2.217-3.261-4.229-2.893l-3.036.554zm5.774 11.35l-.646-3.549.988-.179-4.095-3.128-1.16.211.685 3.753 2.08-.382.65 3.549-9.584 1.75-.736-4.025 2.456-.448-2.704-14.801-2.456.448-.736-4.024 10.676-1.95c4.74-.867 9.226 1.697 10.005 5.958.612 3.344-1.21 6.495-3.913 7.907l4.713 3.614 2.456-.449.737 4.024-9.416 1.721M199.143 92.903c-6.627-.644-11.726-6.607-11.096-13.096.64-6.591 6.758-11.5 13.421-10.854 2.656.256 4.99 1.354 6.476 2.891l.177-1.83 4.004.391-.79 8.143-4.452-.43c-1.046-2.506-3.408-4.023-5.892-4.265-4.004-.388-7.314 2.494-7.698 6.463-.385 3.97 2.322 7.297 6.326 7.685 2.586.252 4.974-.666 6.433-2.754l5.452.528c-2.836 6.622-9.36 7.42-12.361 7.128M215.672 95.253l1.445-3.828 2.335.886 5.323-14.075-2.336-.883 1.448-3.825 9.469 3.577-1.448 3.828-2.333-.882-5.202 13.75 4.574 1.728 1.042-2.757 4.475 1.693-2.61 6.908-16.182-6.12M236.413 103.761l2.315-3.372 2.059 1.415 8.518-12.401-2.057-1.415 2.319-3.37 14.57 10.011-3.868 5.628-3.941-2.706 1.353-1.972-4.342-2.984-2.671 3.885 5.401 3.71-2.513 3.658-5.401-3.71-2.944 4.286 4.344 2.984 1.669-2.43 3.941 2.71-4.182 6.085-14.57-10.012M85.334 150.345l1.91-4.466a2.684 2.684 0 0 0-2.403 1.614 2.682 2.682 0 0 0 .493 2.852zm4.453-2.852l1.185-2.769c1.437 1.48 1.91 3.837 1.01 5.947-1.132 2.645-4.157 3.889-6.748 2.781-2.59-1.107-3.785-4.153-2.655-6.8 1.177-2.75 4.248-4.101 6.839-2.995.288.123.54.274.785.442l-3.047 7.13a2.687 2.687 0 0 0 2.655-1.613 2.654 2.654 0 0 0-.024-2.123M97.862 138.944c-.573.992-1.187 1.356-2.007 1.644l.59.341-.953 1.651-2.725-1.576 1.078-1.867c1.061.184 1.578-.01 2.103-.92.32-.554.313-1.164-.208-1.465-.908-.527-1.756.825-2.899 1.713-1.177.914-2.166 1.307-3.497.538-1.396-.806-1.73-2.751-.808-4.351.34-.588 1.042-1.216 1.75-1.435l-.488-.282.953-1.647 2.305 1.332-1.176 2.035c-.652-.154-1.099.152-1.38.638-.253.438-.297 1.018.107 1.251.774.448 1.568-.888 2.886-1.923.94-.734 2.348-.997 3.426-.374 1.498.864 1.935 2.981.943 4.697M97.483 125.455l4.207 3 .678-.948 1.867 1.33-2.167 3.038-6.075-4.335-.778 1.093-1.866-1.332.779-1.092-2.66-1.893 1.49-2.09 2.658 1.895.914-1.28 1.867 1.331-.914 1.283M107.04 125.277l-2.118-1.77 1.72-2.058 2.117 1.771-1.72 2.057M267.453 121.952l1.778-1.445 7.013 1.088c.79.112 1.633-.05 2.07-.403.755-.612.885-1.719.285-2.456-.662-.816-1.902-.833-2.807-.099l-1.688-2.084.453-.365c1.688-1.372 4.455-1.015 6.01.901 1.516 1.871 1.278 4.691-.472 6.11-1.191.966-2.559 1.102-3.919.904l-4.619-.73 1.688 2.082.875-.708 1.616 1.989-2.656 2.153-5.627-6.937M285.224 131.58c.977-.633 1.275-1.89.66-2.836-.603-.93-1.872-1.172-2.85-.537l-3.503 2.273c-.963.625-1.258 1.883-.656 2.812.616.945 1.884 1.187 2.846.564zm-8.499 3.107c-1.406-2.164-.773-5.079 1.427-6.508l3.341-2.167c2.199-1.43 5.135-.833 6.542 1.333 1.418 2.184.768 5.11-1.434 6.536l-3.34 2.168c-2.2 1.428-5.118.822-6.536-1.362M280.9 141.16l2.035-1.056.645 1.243 7.481-3.887-.842-1.621 2.033-1.056 2.079 4-9.516 4.942.644 1.242-2.034 1.057-2.525-4.864M295.079 149.343l-4.382-1.074.995 2.448zm-4.5 4.721l-1.046.423.528 1.296-2.126.862-2.062-5.076 2.126-.862.525 1.296 1.044-.423-2.097-5.167 2.124-.864 8.742 2.112 1.132 2.792-6.766 2.747.649 1.604-2.123.861-.65-1.601M96.485 242.687l-13.203.401-.048-.121-.035-.091-1.366-3.421 7.193-5.866-9.397.344-1.368-3.421 10.088-8.203-.73-1.832 3.54-1.414 2.816 7.053-3.542 1.416-.646-1.621-5.302 4.413 10.81-.904 1.245 3.119-8.273 6.47 6.637-.284-.6-1.5 3.542-1.414 2.9 7.262-3.542 1.415-.719-1.801M101.527 254.666l4.86 6.447c.81-1.5.729-3.38-.342-4.798-1.067-1.418-2.852-2.015-4.518-1.649zm.427 8.778l3.015 3.999c-3.326.848-7.115-.422-9.408-3.466-2.878-3.818-2.167-9.207 1.573-12.026 3.74-2.82 9.116-2.02 11.995 1.798 2.993 3.974 2.4 9.515-1.342 12.336a7.33 7.33 0 0 1-1.283.766l-7.757-10.294c-1.025 1.543-1.038 3.616.129 5.163a4.407 4.407 0 0 0 3.078 1.724M123.766 274.633c-1.895-1.562-4.69-1.268-6.271.652-1.582 1.919-1.335 4.719.56 6.28 1.897 1.562 4.69 1.268 6.272-.653 1.583-1.92 1.334-4.717-.561-6.279zm-8.107 10.149c-1.346-1.11-2.403-3.235-2.228-4.766l-1.193 1.447-4.712-3.883 2.423-2.941 1.522 1.251 8.913-10.824-1.545-1.272 2.422-2.943 4.839 3.985-4.56 5.536c1.413-.343 3.6.203 4.922 1.29 3.667 3.02 4.236 8.427 1.258 12.043-2.98 3.616-8.396 4.096-12.061 1.077M158.124 293.07c-2.35-.717-4.85.617-5.576 2.996-.724 2.38.608 4.88 2.956 5.595 2.35.716 4.819-.626 5.544-3.006.725-2.38-.576-4.87-2.924-5.584zm.561 13.343l.507-1.669c-1.181.89-3.433 1.183-5.04.693-4.573-1.393-7.173-6.17-5.807-10.652 1.366-4.481 6.186-6.998 10.76-5.605 1.639.498 3.334 2.03 3.946 3.567l.546-1.792 5.812 1.769-1.112 3.647-1.917-.583-2.504 8.221 1.916.585-1.11 3.647-5.997-1.828M182.773 310.666c-4.87-.282-8.617-4.32-8.345-8.995.27-4.679 4.265-8.264 8.879-7.998 1.773.103 3.725 1.058 4.501 2.172l.09-1.516 3.482.203-.31 5.353-3.646-.212c-.743-1.11-2.252-1.877-3.8-1.969-2.517-.144-4.665 1.737-4.81 4.22-.143 2.484 1.74 4.6 4.287 4.75 1.582.09 3.346-.747 4.064-1.998l4.356.252c-1.137 3.397-5.104 5.95-8.748 5.738M206.812 296.365c-2.415.437-4.03 2.764-3.585 5.21.442 2.448 2.769 4.062 5.185 3.624 2.415-.438 3.997-2.758 3.555-5.205-.444-2.447-2.739-4.067-5.155-3.629zm6.599 11.606l-.311-1.716c-.645 1.332-2.513 2.62-4.167 2.92-4.702.852-9.194-2.207-10.029-6.816-.835-4.607 2.3-9.05 7.004-9.902 1.684-.305 3.89.282 5.137 1.368l-.333-1.843 5.976-1.08.677 3.749-1.969.356 1.53 8.454 1.971-.356.679 3.751-6.165 1.115M231.575 288.917c-2.239 1.01-3.24 3.661-2.215 5.927 1.025 2.267 3.675 3.27 5.913 2.256 2.239-1.01 3.18-3.634 2.155-5.901-1.025-2.267-3.617-3.294-5.853-2.282zm9.193 9.67l-.757-1.676.105.233c-.445 1.445-1.896 3.022-3.37 3.688-4.357 1.97-9.46.092-11.389-4.176-1.932-4.27.031-9.341 4.39-11.31 1.558-.706 3.814-.662 5.058.053l-1.385-3.063-1.824.824-1.572-3.473 5.713-2.583 7.427 16.43 1.797-.811 1.491 3.297-5.684 2.568M251.843 280.387l6.364-4.971c-1.515-.787-3.394-.672-4.794.423-1.398 1.092-1.965 2.888-1.57 4.548zm8.77-.58l3.946-3.084c.906 3.31-.3 7.121-3.304 9.469-3.767 2.943-9.17 2.324-12.052-1.368-2.884-3.69-2.176-9.081 1.593-12.023 3.92-3.062 9.473-2.564 12.357 1.126.319.408.567.829.788 1.272l-10.157 7.933c1.557.997 3.63.975 5.159-.216a4.421 4.421 0 0 0 1.67-3.11M266.805 264.768l-1.166 1.63-3.099-2.22 3.539-4.94 1.522 1.093c-.501-1.354-.106-3.734.91-5.151 1.128-1.576 3.332-2.541 5.273-2.423-.816-1.579-.4-4.381.9-6.192 1.995-2.784 5.912-3.314 8.775-1.262l5.2 3.726 1.166-1.63 3.099 2.221-4.817 6.724-3.099-2.221 1.167-1.628-4.622-3.312c-1.366-.98-3.312-.706-4.309.688-1.017 1.417-.896 3.413.337 4.299l4.887 3.498 1.167-1.63 3.098 2.223-4.818 6.723-3.099-2.221 1.167-1.627-4.886-3.501c-1.234-.883-3.085-.464-4.045.876-1.053 1.469-.816 3.469.47 4.392l4.754 3.406 1.167-1.627 3.098 2.22-4.817 6.723-3.099-2.221 1.167-1.63-6.987-5.006M289.933 222.495l11.491 10.41.659-1.825 3.586 1.297-2.878 7.96-3.586-1.296.858-2.369-1.571-1.359-13.272.219-.67 1.852-3.585-1.296 2.635-7.292 3.587 1.296-.496 1.367 7.714.144-5.978-4.946-.504 1.399-3.586-1.297 2.67-7.383 3.585 1.295-.659 1.824"/><path d="M190.77 62.348c-70.055 0-127.05 56.993-127.05 127.048s56.995 127.05 127.05 127.05c70.054 0 127.049-56.995 127.049-127.05S260.824 62.348 190.769 62.348zm0 260.764c-73.733 0-133.717-59.984-133.717-133.716 0-73.73 59.984-133.715 133.716-133.715s133.716 59.984 133.716 133.715c0 73.732-59.984 133.716-133.716 133.716"/><path d="M196.256 51.248l-.099-.003c-1.314-.064-2.634-.11-3.96-.134a2 2 0 0 1 .039-4h.04c1.363.028 2.723.073 4.077.14a2 2 0 1 1-.097 3.997zm-16.079.136a1.999 1.999 0 0 1-1.993-1.87 2.001 2.001 0 0 1 1.865-2.126c1.352-.088 2.71-.156 4.075-.207 1.065-.052 2.03.822 2.07 1.926a2 2 0 0 1-1.925 2.072 138.8 138.8 0 0 0-3.96.201zm28.088.953l-.269-.018a136.543 136.543 0 0 0-3.935-.47 2.003 2.003 0 0 1-1.78-2.2c.116-1.098 1.107-1.874 2.199-1.778 1.356.142 2.705.304 4.05.485a1.999 1.999 0 0 1-.265 3.981zm-40.074.346a2.001 2.001 0 0 1-.298-3.979c1.34-.203 2.687-.388 4.038-.552 1.094-.147 2.094.643 2.229 1.739a1.998 1.998 0 0 1-1.74 2.229c-1.315.163-2.624.343-3.928.54zm51.944 1.773c-.146 0-.291-.016-.439-.048a135.989 135.989 0 0 0-3.88-.81 2 2 0 0 1-1.583-2.342 1.993 1.993 0 0 1 2.344-1.584c1.336.259 2.67.536 3.992.832a2 2 0 0 1-.434 3.952zm-63.775.552c-.901 0-1.72-.613-1.943-1.528a2.002 2.002 0 0 1 1.474-2.416c1.318-.319 2.645-.621 3.978-.903a2 2 0 1 1 .825 3.915c-1.293.273-2.58.564-3.86.876a2.058 2.058 0 0 1-.474.056zm75.416 2.584c-.2 0-.404-.03-.605-.093a135.17 135.17 0 0 0-3.794-1.142 2 2 0 0 1 1.096-3.846c1.312.373 2.615.765 3.908 1.176a2 2 0 0 1-.605 3.905zm-87.001.756a2 2 0 0 1-.638-3.896c1.287-.432 2.582-.847 3.887-1.244a2.009 2.009 0 0 1 2.496 1.333 2.003 2.003 0 0 1-1.333 2.496c-1.268.383-2.526.787-3.775 1.207a1.975 1.975 0 0 1-.637.104zm98.353 3.388c-.256 0-.516-.05-.768-.153-1.221-.508-2.45-.998-3.69-1.471a2 2 0 1 1 1.424-3.737 135.9 135.9 0 0 1 3.803 1.514 2 2 0 0 1-.769 3.847zm-109.595.939a2 2 0 0 1-.799-3.834c1.24-.54 2.493-1.064 3.75-1.569a1.997 1.997 0 0 1 2.601 1.11 1.997 1.997 0 0 1-1.109 2.6c-1.224.493-2.439 1-3.645 1.526a1.99 1.99 0 0 1-.798.167zm120.542 4.17a2 2 0 0 1-.924-.226 137.83 137.83 0 0 0-3.55-1.784 1.999 1.999 0 0 1-.926-2.672 1.998 1.998 0 0 1 2.672-.927c1.226.593 2.445 1.205 3.653 1.836a2.001 2.001 0 0 1-.925 3.773zM122.716 67.95a1.998 1.998 0 0 1-.955-3.757 136.616 136.616 0 0 1 3.606-1.888 1.995 1.995 0 0 1 2.686.884 1.998 1.998 0 0 1-.884 2.685 141.19 141.19 0 0 0-3.501 1.834 1.993 1.993 0 0 1-.952.242zm141.815 4.926c-.367 0-.738-.1-1.071-.311a134.218 134.218 0 0 0-3.38-2.081 1.999 1.999 0 1 1 2.048-3.436c1.17.697 2.33 1.412 3.477 2.14a2.003 2.003 0 0 1 .616 2.761 2.002 2.002 0 0 1-1.69.927zM112.385 74.14a1.998 1.998 0 0 1-1.101-3.67 146.882 146.882 0 0 1 3.43-2.191 2.002 2.002 0 0 1 2.755.646c.58.94.291 2.172-.648 2.755a143.19 143.19 0 0 0-3.337 2.13c-.338.225-.72.33-1.099.33zm162.042 5.64c-.423 0-.848-.133-1.212-.41a139.67 139.67 0 0 0-3.188-2.362 2 2 0 0 1 2.336-3.247c1.106.794 2.198 1.604 3.278 2.43a1.998 1.998 0 0 1-1.214 3.589zM102.62 81.199a2.001 2.001 0 0 1-1.241-3.57c1.065-.841 2.143-1.668 3.231-2.48a2 2 0 0 1 2.39 3.207c-1.059.79-2.106 1.593-3.142 2.412-.367.29-.805.43-1.238.43zm181.075 6.308c-.48 0-.96-.172-1.344-.52-.979-.888-1.971-1.764-2.974-2.626a2.002 2.002 0 0 1-.213-2.821 1.996 1.996 0 0 1 2.82-.213c1.032.885 2.05 1.785 3.056 2.7a2.002 2.002 0 0 1-1.345 3.48zM93.487 89.069a2 2 0 0 1-1.369-3.459c.99-.929 1.994-1.846 3.01-2.747a2 2 0 0 1 2.654 2.993 144.86 144.86 0 0 0-2.927 2.672 1.996 1.996 0 0 1-1.368.541zm198.776 6.923a1.99 1.99 0 0 1-1.466-.64c-.898-.97-1.81-1.924-2.736-2.867a2.002 2.002 0 0 1 .026-2.829 1.997 1.997 0 0 1 2.828.027c.952.969 1.889 1.952 2.814 2.95a2 2 0 0 1-1.466 3.359zM85.056 97.695a2 2 0 0 1-1.487-3.336c.909-1.012 1.83-2.012 2.767-2.996a1.995 1.995 0 0 1 2.827-.072c.8.76.833 2.025.071 2.826-.91.959-1.806 1.93-2.689 2.912a1.994 1.994 0 0 1-1.49.666zm215.019 7.48a1.992 1.992 0 0 1-1.579-.771 145.303 145.303 0 0 0-2.48-3.09 1.998 1.998 0 0 1 .268-2.815 1.998 1.998 0 0 1 2.815.268 139.212 139.212 0 0 1 2.55 3.178 2 2 0 0 1-1.574 3.23zM77.393 107.01a2 2 0 0 1-1.596-3.204 137.875 137.875 0 0 1 2.504-3.224 1.998 1.998 0 0 1 2.811-.312c.862.69 1.001 1.949.31 2.812a130.336 130.336 0 0 0-2.43 3.13 1.995 1.995 0 0 1-1.599.798zm229.672 7.974c-.653 0-1.294-.32-1.677-.908a148.79 148.79 0 0 0-2.205-3.289 2.001 2.001 0 0 1 3.29-2.273 138.218 138.218 0 0 1 2.267 3.38 2 2 0 0 1-1.675 3.09zm-236.512 1.968a2.002 2.002 0 0 1-1.694-3.061 142.154 142.154 0 0 1 2.218-3.43 2.004 2.004 0 0 1 2.775-.554 2.003 2.003 0 0 1 .553 2.775 131.704 131.704 0 0 0-2.155 3.332 1.997 1.997 0 0 1-1.697.938zm242.634 8.404a1.999 1.999 0 0 1-1.767-1.058 132.065 132.065 0 0 0-1.912-3.463 2 2 0 0 1 .744-2.73 2.006 2.006 0 0 1 2.73.746 141.785 141.785 0 0 1 1.967 3.564 2 2 0 0 1-1.762 2.941zM64.59 127.455a2.002 2.002 0 0 1-1.78-2.911c.621-1.215 1.26-2.417 1.916-3.61a1.996 1.996 0 0 1 2.714-.79 1.998 1.998 0 0 1 .79 2.715 138.617 138.617 0 0 0-1.858 3.506 2 2 0 0 1-1.782 1.09zm253.798 8.754a2 2 0 0 1-1.84-1.213 148.535 148.535 0 0 0-1.605-3.612 1.998 1.998 0 0 1 .976-2.653c1-.467 2.192-.027 2.655.976.568 1.229 1.118 2.469 1.652 3.716a1.999 1.999 0 0 1-1.838 2.786zm-258.834 2.227a2 2 0 0 1-1.85-2.755 141.61 141.61 0 0 1 1.596-3.762 2.002 2.002 0 0 1 2.636-1.023 1.998 1.998 0 0 1 1.022 2.636 143.96 143.96 0 0 0-1.552 3.66 2 2 0 0 1-1.852 1.244zm263.082 9.041a2 2 0 0 1-1.898-1.373 141.097 141.097 0 0 0-1.294-3.75 2 2 0 0 1 3.763-1.357c.461 1.276.903 2.562 1.33 3.855a2 2 0 0 1-1.9 2.625zm-267.147 2.34a2 2 0 0 1-1.911-2.59c.403-1.306.825-2.602 1.266-3.894a1.999 1.999 0 1 1 3.784 1.295 131.096 131.096 0 0 0-1.228 3.78 2.002 2.002 0 0 1-1.911 1.41zm270.41 9.27c-.91 0-1.73-.623-1.947-1.546a133.65 133.65 0 0 0-.96-3.842 1.999 1.999 0 0 1 1.419-2.446 1.987 1.987 0 0 1 2.445 1.418c.35 1.312.68 2.633.992 3.96a2.002 2.002 0 0 1-1.949 2.456zM52.433 161.48a1.999 1.999 0 0 1-1.956-2.423c.289-1.33.594-2.655.92-3.971a2.003 2.003 0 0 1 2.42-1.463 1.998 1.998 0 0 1 1.463 2.42 140.23 140.23 0 0 0-.894 3.861 2 2 0 0 1-1.953 1.576zm275.712 9.451a2 2 0 0 1-1.976-1.713c-.19-1.311-.4-2.615-.626-3.912a2.001 2.001 0 0 1 1.625-2.316 1.994 1.994 0 0 1 2.315 1.625c.234 1.337.449 2.68.645 4.03a2 2 0 0 1-1.693 2.266zm-277.75 2.433l-.253-.014a2.001 2.001 0 0 1-1.733-2.236c.172-1.354.363-2.699.574-4.04a1.996 1.996 0 0 1 2.285-1.666 1.998 1.998 0 0 1 1.665 2.286c-.203 1.301-.389 2.609-.555 3.922a2 2 0 0 1-1.982 1.748zm278.97 9.562a2 2 0 0 1-1.994-1.882 138.688 138.688 0 0 0-.29-3.956 2 2 0 0 1 1.82-2.165c1.08-.11 2.07.719 2.166 1.82.117 1.35.216 2.705.296 4.065a1.997 1.997 0 0 1-1.878 2.114zm-279.98 2.454l-.084-.001a2 2 0 0 1-1.916-2.081c.058-1.363.133-2.719.228-4.072.078-1.102 1.052-1.946 2.135-1.855a2 2 0 0 1 1.855 2.136 137.587 137.587 0 0 0-.22 3.957 2.001 2.001 0 0 1-1.998 1.916zm280.17 9.898l-.058-.002a2 2 0 0 1-1.942-2.054c.036-1.318.056-2.639.056-3.966l-.002-.293a2 2 0 0 1 4 0l.002.268c0 1.39-.02 2.748-.059 4.103a1.997 1.997 0 0 1-1.997 1.944zm-280.16 2.154c-1.064 0-1.95-.84-1.997-1.913a150.778 150.778 0 0 1-.118-4.068 2 2 0 0 1 1.968-2.03h.032a2 2 0 0 1 2 1.967c.02 1.324.059 2.643.116 3.959a2.001 2.001 0 0 1-1.913 2.084zm279.309 9.874l-.228-.014a2 2 0 0 1-1.761-2.212c.148-1.312.28-2.626.393-3.946a1.993 1.993 0 0 1 2.163-1.823 1.999 1.999 0 0 1 1.821 2.164c-.116 1.356-.25 2.708-.403 4.056a2.001 2.001 0 0 1-1.985 1.775zm-278.276 2.138a2 2 0 0 1-1.98-1.742c-.175-1.344-.33-2.696-.466-4.052a1.998 1.998 0 0 1 1.79-2.188c1.101-.131 2.08.69 2.189 1.79.133 1.316.284 2.628.453 3.935a1.998 1.998 0 0 1-1.725 2.24zm276.397 9.77a1.999 1.999 0 0 1-1.963-2.397c.263-1.29.506-2.589.73-3.894a2.016 2.016 0 0 1 2.31-1.632 2 2 0 0 1 1.633 2.31 140.89 140.89 0 0 1-.752 4.01 2 2 0 0 1-1.958 1.603zm-274.332 2.11c-.92 0-1.748-.637-1.953-1.572-.289-1.325-.56-2.657-.812-3.996a1.999 1.999 0 0 1 1.592-2.336 1.994 1.994 0 0 1 2.337 1.592c.248 1.302.51 2.598.792 3.886a2.001 2.001 0 0 1-1.956 2.426zm271.428 9.595a2.002 2.002 0 0 1-1.92-2.564c.372-1.268.728-2.541 1.067-3.821a1.999 1.999 0 1 1 3.867 1.021 142.127 142.127 0 0 1-1.095 3.927 2 2 0 0 1-1.919 1.437zm-268.343 2.063a1.999 1.999 0 0 1-1.909-1.404c-.405-1.296-.79-2.6-1.158-3.912a2 2 0 0 1 3.852-1.079c.357 1.275.732 2.541 1.124 3.8a1.999 1.999 0 0 1-1.909 2.595zm264.433 9.357a2 2 0 0 1-1.863-2.73c.485-1.234.948-2.474 1.396-3.723a2.001 2.001 0 0 1 3.765 1.352c-.46 1.285-.94 2.562-1.437 3.832a2 2 0 0 1-1.861 1.269zM59.66 244.33c-.79 0-1.535-.469-1.853-1.242a151.857 151.857 0 0 1-1.49-3.796 2.002 2.002 0 0 1 1.168-2.577 2.002 2.002 0 0 1 2.578 1.168c.466 1.24.947 2.469 1.447 3.689a2.002 2.002 0 0 1-1.85 2.757zm255.464 9.057a2 2 0 0 1-1.792-2.887 141.953 141.953 0 0 0 1.71-3.584 2.005 2.005 0 0 1 2.653-.984 2.002 2.002 0 0 1 .984 2.653 141.38 141.38 0 0 1-1.762 3.688 2 2 0 0 1-1.793 1.114zM64.696 255.26a1.997 1.997 0 0 1-1.78-1.085c-.62-1.204-1.22-2.42-1.808-3.644a2 2 0 0 1 3.61-1.727 137.92 137.92 0 0 0 1.756 3.543 1.999 1.999 0 0 1-1.778 2.913zm244.605 8.706a2.002 2.002 0 0 1-1.708-3.041c.688-1.128 1.359-2.269 2.014-3.418a1.997 1.997 0 0 1 2.726-.751 1.997 1.997 0 0 1 .75 2.727 128.354 128.354 0 0 1-2.072 3.524 1.998 1.998 0 0 1-1.71.96zm-238.644 1.757c-.664 0-1.315-.331-1.695-.936a148.553 148.553 0 0 1-2.116-3.476 2 2 0 0 1 .706-2.739 2.007 2.007 0 0 1 2.74.705 140.742 140.742 0 0 0 2.058 3.382 2.003 2.003 0 0 1-1.693 3.064zm231.938 8.276a2.003 2.003 0 0 1-1.612-3.183 134.334 134.334 0 0 0 2.298-3.233 2 2 0 1 1 3.295 2.27 139.301 139.301 0 0 1-2.367 3.329 1.997 1.997 0 0 1-1.614.817zm-225.098 1.64a1.997 1.997 0 0 1-1.598-.795 149.765 149.765 0 0 1-2.408-3.284 2 2 0 0 1 3.26-2.32 142.285 142.285 0 0 0 2.341 3.195 2 2 0 0 1-1.595 3.205zm217.559 7.781a2.002 2.002 0 0 1-1.505-3.317c.87-.995 1.725-2.003 2.566-3.023a1.996 1.996 0 0 1 2.815-.27c.852.7.975 1.96.27 2.814a146.537 146.537 0 0 1-2.638 3.112c-.396.452-.95.684-1.508.684zm-209.89 1.52a1.996 1.996 0 0 1-1.488-.663 139.422 139.422 0 0 1-2.682-3.07 2 2 0 1 1 3.05-2.588 138.006 138.006 0 0 0 2.606 2.984 2 2 0 0 1-1.487 3.337zm201.58 7.213a2 2 0 0 1-1.39-3.439c.95-.917 1.89-1.849 2.813-2.793a2.001 2.001 0 0 1 2.856 2.8c-.949.971-1.914 1.927-2.89 2.871-.388.376-.89.561-1.39.561zm-193.143 1.402c-.491 0-.982-.18-1.368-.54-.992-.93-1.97-1.874-2.936-2.83a2.002 2.002 0 0 1-.012-2.83 2.004 2.004 0 0 1 2.83-.012c.938.93 1.89 1.849 2.853 2.752a2 2 0 0 1-1.367 3.46zm184.117 6.589a1.997 1.997 0 0 1-1.555-.739 2.003 2.003 0 0 1 .294-2.815 133.798 133.798 0 0 0 3.038-2.538 2 2 0 1 1 2.61 3.032c-1.031.887-2.074 1.759-3.128 2.615-.371.3-.816.445-1.259.445zm-174.972 1.276c-.433 0-.87-.142-1.237-.43a153.11 153.11 0 0 1-3.167-2.57 2 2 0 1 1 2.562-3.07c1.016.847 2.043 1.68 3.082 2.5a2 2 0 0 1-1.24 3.57zm165.299 5.912a2 2 0 0 1-1.124-3.655 138.563 138.563 0 0 0 3.242-2.269 2 2 0 1 1 2.342 3.244 138.41 138.41 0 0 1-3.339 2.335 1.992 1.992 0 0 1-1.121.345zm-155.51 1.144c-.377 0-.757-.106-1.096-.33-1.139-.746-2.266-1.51-3.381-2.291a1.999 1.999 0 0 1-.491-2.785 1.998 1.998 0 0 1 2.785-.492c1.083.758 2.177 1.5 3.282 2.226a2 2 0 0 1-1.099 3.672zm145.264 5.181a1.999 1.999 0 0 1-.977-3.745c1.15-.644 2.292-1.304 3.421-1.98a2 2 0 1 1 2.055 3.433c-1.165.696-2.34 1.378-3.525 2.039a1.991 1.991 0 0 1-.974.253zm-134.899 1.008c-.321 0-.647-.077-.95-.241a142.657 142.657 0 0 1-3.566-1.993 2 2 0 0 1 2.003-3.463 139.44 139.44 0 0 0 3.466 1.939 2 2 0 0 1-.953 3.758zm124.151 4.418a2.001 2.001 0 0 1-.824-3.824 138.312 138.312 0 0 0 3.578-1.677c.99-.48 2.189-.073 2.673.92a2 2 0 0 1-.923 2.675c-1.217.593-2.444 1.17-3.682 1.728a1.976 1.976 0 0 1-.822.178zm-113.285.86c-.265 0-.535-.053-.794-.166a141.644 141.644 0 0 1-3.728-1.68 1.999 1.999 0 0 1-.964-2.658 1.995 1.995 0 0 1 2.66-.963c1.199.56 2.406 1.106 3.623 1.632a2 2 0 0 1-.797 3.835zm102.101 3.616a2 2 0 0 1-.662-3.887 142.5 142.5 0 0 0 3.721-1.367 1.994 1.994 0 0 1 2.584 1.151 1.999 1.999 0 0 1-1.152 2.583c-1.268.486-2.543.955-3.828 1.406a1.978 1.978 0 0 1-.663.114zm-90.812.701c-.209 0-.422-.032-.633-.103a140.36 140.36 0 0 1-3.863-1.35 2 2 0 0 1 1.378-3.756c1.242.456 2.492.893 3.752 1.313a2 2 0 0 1-.634 3.896zm79.272 2.793a2 2 0 0 1-.494-3.937c1.281-.328 2.556-.675 3.824-1.039 1.049-.312 2.169.307 2.474 1.37a2 2 0 0 1-1.37 2.474c-1.304.375-2.616.73-3.936 1.07a2.003 2.003 0 0 1-.498.062zm-67.677.524c-.153 0-.31-.017-.465-.054a144.273 144.273 0 0 1-3.956-1.008 2.003 2.003 0 0 1-1.408-2.455 2.006 2.006 0 0 1 2.454-1.408c1.274.345 2.552.672 3.839.98a1.999 1.999 0 0 1-.464 3.945zm55.876 1.96a2 2 0 0 1-.325-3.972 141.66 141.66 0 0 0 3.901-.704 1.991 1.991 0 0 1 2.347 1.578 1.998 1.998 0 0 1-1.579 2.346c-1.332.26-2.67.503-4.013.726zm-44.037.339l-.3-.021a149.344 149.344 0 0 1-4.024-.663 2.003 2.003 0 0 1-1.615-2.324c.196-1.086 1.247-1.797 2.323-1.613 1.297.233 2.601.446 3.91.644a2 2 0 0 1-.294 3.977zm32.068 1.12a2 2 0 0 1-.155-3.993c1.321-.104 2.636-.227 3.947-.367a1.996 1.996 0 0 1 2.202 1.773 1.999 1.999 0 0 1-1.773 2.203c-1.35.145-2.703.27-4.061.377zm-20.082.152l-.126-.004c-1.36-.085-2.715-.19-4.067-.313a2.003 2.003 0 0 1-1.81-2.176 1.993 1.993 0 0 1 2.177-1.808c1.313.121 2.629.223 3.952.305a2 2 0 0 1-.126 3.996zm9.116.283h-.16l-.93-.003a2.001 2.001 0 0 1 .01-4h.008l.915.003c1.013-.006 2.037-.01 3.053-.032h.044a2.001 2.001 0 0 1 .043 4c-.993.021-1.988.032-2.983.032"/></svg>